<svg xmlns="http://www.w3.org/2000/svg" viewBox="0 0 484.13 161.66"><defs><style>.cls-1{fill:#ff8001;}.cls-2{fill:#13017c;}.cls-3{fill:#4d4d4d;}</style></defs><g id="Capa_2" data-name="Capa 2"><g id="Capa_1-2" data-name="Capa 1"><path class="cls-1" d="M209.47,105.1c-4.26,1.65-9.26,4.2-9.35,7.46-.26,9.93,45.27,22.82,87.94,22.08,39.89-.69,82.26-13.38,81.84-22.56-.14-3.13-5.23-5.47-9.6-7a69.49,69.49,0,0,0-36.72-56.62l-9.36,38.4-6.48.48,4.8-43.44-14.4-3.6-.48-10.08H272V39.6l-14.4,3.12,6.48,44.16-5.28.24L248.22,49a73.43,73.43,0,0,0-38.75,56.14Z"/><path class="cls-2" d="M359.53,67.32q-9.79-8.47-19.74-17.48-6.32-5.72-12.41-11.4,9.74-10.59,19.48-21.19l12,10.52a69.47,69.47,0,0,1,19.78-11.36L379.14,0h35.52q-.07,6.69-.14,13.39a68.25,68.25,0,0,1,14.68,4.52,67.42,67.42,0,0,1,10.7,5.88l11.24-10.11,22.15,23L461.63,47.54a65.58,65.58,0,0,1,7.25,19.26l15.25.21-.39,29.42-15.45-.11a69.05,69.05,0,0,1-8.41,20.21l10.09,11-22.8,20.64L438,138.37a67.75,67.75,0,0,1-12,5.92,68.47,68.47,0,0,1-11.51,3.2v12.4l-33.25,1.2q-.33-8-.67-16a64,64,0,0,1-10.35-4.32,63.23,63.23,0,0,1-7.22-4.41q-10.06,7.6-20.15,15.19l-16.15-14.11A75.32,75.32,0,0,0,377,118.62a43.4,43.4,0,0,0,55.38-65.7,43.27,43.27,0,0,0-23.26-13.17,43.3,43.3,0,0,0-49.63,27.57Z"/><path class="cls-3" d="M46.08,91.43a17.06,17.06,0,0,1-2.71,9.45,18.05,18.05,0,0,1-7.93,6.57,29.76,29.76,0,0,1-12.38,2.37q-8.58,0-14.16-3.24a19,19,0,0,1-6.43-6.23A14.13,14.13,0,0,1,0,92.77a5.14,5.14,0,0,1,5.26-5.18,4.49,4.49,0,0,1,3.15,1.19A9.41,9.41,0,0,1,10.6,92.3,24.22,24.22,0,0,0,13,96.93,9.72,9.72,0,0,0,16.61,100a13.31,13.31,0,0,0,6.13,1.21,13.87,13.87,0,0,0,8.49-2.43,7.35,7.35,0,0,0,3.26-6.08A6.42,6.42,0,0,0,32.73,88a11.29,11.29,0,0,0-4.55-2.75c-1.86-.63-4.34-1.31-7.46-2a54.15,54.15,0,0,1-10.46-3.42,16.87,16.87,0,0,1-6.68-5.34,13.82,13.82,0,0,1-2.47-8.4,14.46,14.46,0,0,1,2.61-8.51,16.44,16.44,0,0,1,7.55-5.71,31,31,0,0,1,11.63-2,28.61,28.61,0,0,1,9.24,1.33,19.34,19.34,0,0,1,6.46,3.52,14.65,14.65,0,0,1,3.76,4.6A10.66,10.66,0,0,1,43.55,64a5.57,5.57,0,0,1-1.49,3.78,4.73,4.73,0,0,1-3.69,1.68,4.27,4.27,0,0,1-3.07-1A13.27,13.27,0,0,1,33,65.17,15.06,15.06,0,0,0,29.23,60Q27,58.21,22.11,58.21a12.36,12.36,0,0,0-7.34,2A5.83,5.83,0,0,0,12,65a4.86,4.86,0,0,0,.95,3,8.12,8.12,0,0,0,2.61,2.18,17.16,17.16,0,0,0,3.37,1.42q1.69.52,5.61,1.51a87.66,87.66,0,0,1,8.88,2.53A26.65,26.65,0,0,1,40.16,79a13.86,13.86,0,0,1,4.35,5A15.93,15.93,0,0,1,46.08,91.43Z"/><path class="cls-3" d="M115.52,90.52a15.44,15.44,0,0,1-1.37,6,21.44,21.44,0,0,1-4.29,6.33,21.85,21.85,0,0,1-7.47,5,26.91,26.91,0,0,1-10.6,1.94,37.11,37.11,0,0,1-8.35-.87,23.33,23.33,0,0,1-6.82-2.71A22.92,22.92,0,0,1,71,101.4a28.86,28.86,0,0,1-3.92-6.11,32.12,32.12,0,0,1-2.43-7.22,39.45,39.45,0,0,1-.81-8.15,36.09,36.09,0,0,1,2-12.54,26.77,26.77,0,0,1,5.84-9.47,25.39,25.39,0,0,1,8.9-6,28.8,28.8,0,0,1,10.87-2.06A27.21,27.21,0,0,1,104,52.67a22.74,22.74,0,0,1,8.42,6.94,13.73,13.73,0,0,1,2.93,7.81A5.08,5.08,0,0,1,113.94,71a4.51,4.51,0,0,1-3.44,1.54,4.78,4.78,0,0,1-3.39-1.06,15.22,15.22,0,0,1-2.51-3.68,17.63,17.63,0,0,0-5.4-6.45,13.21,13.21,0,0,0-7.65-2.14A13.89,13.89,0,0,0,80,64.69q-4.29,5.5-4.29,15.63a28.94,28.94,0,0,0,1.9,11.25A14.25,14.25,0,0,0,83,98.27a14.81,14.81,0,0,0,8.15,2.22A14.28,14.28,0,0,0,99.72,98,15.19,15.19,0,0,0,105,90.6a12.43,12.43,0,0,1,1.86-3.74,4.2,4.2,0,0,1,3.56-1.44,5,5,0,0,1,3.6,1.46A4.89,4.89,0,0,1,115.52,90.52Z"/><path class="cls-3" d="M161.47,49.86A31,31,0,0,1,177,53.52a23.7,23.7,0,0,1,9.78,10.4,35.41,35.41,0,0,1,3.33,15.84A38.81,38.81,0,0,1,188.25,92a26.5,26.5,0,0,1-5.46,9.53,23.86,23.86,0,0,1-8.94,6.17,35.23,35.23,0,0,1-24.32-.05,24.16,24.16,0,0,1-9-6.2,26.41,26.41,0,0,1-5.44-9.61,38.66,38.66,0,0,1-1.84-12.14,37.48,37.48,0,0,1,1.92-12.26,26.23,26.23,0,0,1,5.56-9.49,23.86,23.86,0,0,1,8.86-6A31.75,31.75,0,0,1,161.47,49.86Zm16.69,29.82a27.21,27.21,0,0,0-2-11,15.37,15.37,0,0,0-5.88-7.06A16.94,16.94,0,0,0,155,60.52a14.27,14.27,0,0,0-5.14,3.86,18.46,18.46,0,0,0-3.4,6.46,29.28,29.28,0,0,0-1.24,8.84,30,30,0,0,0,1.24,8.94,18.52,18.52,0,0,0,3.52,6.63,14.88,14.88,0,0,0,5.22,3.93,16.46,16.46,0,0,0,14.76-1,15.6,15.6,0,0,0,6-7A26.92,26.92,0,0,0,178.16,79.68Z"/></g><g id="Capa_5" data-name="Capa 5"><rect class="cls-2" x="457.74" y="73.12" width="35.16" height="16.85" transform="translate(556.86 -393.77) rotate(90)"/><rect class="cls-2" x="439.1" y="21.81" width="35.16" height="16.85" transform="translate(169.21 -325.89) rotate(47.3)"/><rect class="cls-2" x="379.1" width="35.16" height="16.85"/><rect class="cls-2" x="327.91" y="22.77" width="35.16" height="16.85" transform="translate(88.72 264.45) rotate(-47.41)"/><rect class="cls-2" x="436.28" y="124.52" width="35.16" height="16.85" transform="translate(877.57 -77.14) rotate(137.3)"/><rect class="cls-2" x="380.26" y="144.8" width="35.16" height="16.85"/></g></g></svg>