<svg xmlns="http://www.w3.org/2000/svg" viewBox="0 0 284.01 161.09"><defs><style>.cls-1{fill:#ff8001;}.cls-2{fill:#13017c;}</style></defs><g id="Capa_2" data-name="Capa 2"><g id="Capa_1-2" data-name="Capa 1"><path class="cls-1" d="M9.35,105.1C5.09,106.75.09,109.3,0,112.56c-.26,9.93,45.27,22.82,87.94,22.08,39.88-.69,82.25-13.38,81.84-22.56-.15-3.13-5.23-5.47-9.6-7a69.49,69.49,0,0,0-36.72-56.62l-9.36,38.4-6.48.48,4.8-43.44L98,40.32l-.48-10.08H71.86V39.6l-14.4,3.12,6.48,44.16-5.28.24L48.1,49A73.43,73.43,0,0,0,9.35,105.1Z"/><path class="cls-2" d="M159.4,67.32q-9.78-8.47-19.73-17.48-6.31-5.72-12.41-11.4l19.47-21.19,12,10.52a69.47,69.47,0,0,1,19.78-11.36L179,0h35.52q-.07,6.69-.14,13.39a67.76,67.76,0,0,1,25.38,10.4L251,13.68l22.15,23L261.51,47.54a65.58,65.58,0,0,1,7.25,19.26L284,67l-.39,29.42-15.45-.11a69.05,69.05,0,0,1-8.41,20.21l10.09,11-22.8,20.64-9.21-9.76a67.75,67.75,0,0,1-12,5.92,68.47,68.47,0,0,1-11.51,3.2v12.4l-33.25,1.2q-.33-8-.67-16A64,64,0,0,1,170,140.78a62.37,62.37,0,0,1-7.22-4.41l-20.15,15.19-16.15-14.11a75.32,75.32,0,0,0,50.41-18.83A43.32,43.32,0,1,0,209,39.75,43.33,43.33,0,0,0,159.4,67.32Z"/></g><g id="Capa_5" data-name="Capa 5"><rect class="cls-2" x="178.98" width="35.16" height="16.85"/><rect class="cls-2" x="127.78" y="22.77" width="35.16" height="16.85" transform="translate(24.02 117.11) rotate(-47.41)"/></g></g></svg>